<svg width="108" height="20" viewBox="0 0 108 20" fill="none" xmlns="http://www.w3.org/2000/svg">
<g clip-path="url(#clip0_3735_54404)">
<path d="M3.96375 3.86133V6.37278H8.17449H10.0006V8.15172V12.2537H12.5786V3.86133H3.96375Z" fill="#FB8B11"/>
<path d="M7.92737 0V2.51145H12.1381H13.9642V4.29039V8.39242H16.5422V0H7.92737Z" fill="#FFB401"/>
<path d="M0 7.72266V10.2446H4.21074L0 14.3466V16.1255H1.82609L6.03683 12.013V16.1255H8.61483V7.72266H0Z" fill="#F35E29"/>
<path d="M34.3411 1.69531V14.5351H31.6987L25.7263 5.73456V14.5351H23.0839V1.69531H25.7263L31.6987 10.5063V1.69531H34.3411Z" fill="#585858"/>
<path d="M41.5059 14.7035C38.466 14.7035 36.2639 12.642 36.2639 9.45038C36.2639 6.23782 38.4123 4.19727 41.5059 4.19727C44.5243 4.19727 46.6511 6.19596 46.6511 9.23063C46.6511 9.56549 46.6296 9.88988 46.5759 10.2247H38.9386C39.0675 11.7316 40.1309 12.5792 41.4414 12.5792C42.5693 12.5792 43.1923 12.0246 43.536 11.3444H46.3826C45.824 13.2175 44.0839 14.7035 41.5059 14.7035ZM38.9601 8.49812H43.9227C43.8798 7.15868 42.7949 6.31107 41.4307 6.31107C40.1631 6.31107 39.1642 7.09589 38.9601 8.49812Z" fill="#585858"/>
<path d="M48.9927 6.47876H47.7467V4.36496H48.9927V1.85352H51.6459V4.36496H53.9876V6.47876H51.6459V11.397C51.6459 12.0772 51.9252 12.3702 52.7631 12.3702H53.9876V14.5363H52.3334C50.3355 14.5363 48.9927 13.7096 48.9927 11.3761V6.47876Z" fill="#585858"/>
<path d="M61.9796 4.19778C64.6542 4.19778 66.7489 6.23833 66.7489 9.40903C66.7489 12.5797 64.6542 14.6935 61.9796 14.6935C60.3361 14.6935 59.176 13.961 58.5315 13.082V14.5366H55.889V0.943359H58.5315V5.85115C59.1653 4.91982 60.3898 4.19778 61.9796 4.19778ZM61.2814 6.45808C59.8635 6.45808 58.5315 7.52544 58.5315 9.45089C58.5315 11.3763 59.8742 12.4437 61.2814 12.4437C62.71 12.4437 64.0527 11.3449 64.0527 9.40903C64.0527 7.47312 62.71 6.45808 61.2814 6.45808Z" fill="#585858"/>
<path d="M68.3816 1.64359C68.3816 0.795974 69.0583 0.136719 70.0036 0.136719C70.9274 0.136719 71.6256 0.795974 71.6256 1.64359C71.6256 2.4912 70.9274 3.15046 70.0036 3.15046C69.0691 3.15046 68.3816 2.4912 68.3816 1.64359ZM68.6716 4.36432H71.3141V14.5357H68.6716V4.36432Z" fill="#585858"/>
<path d="M80.9172 6.43718L76.3197 12.4228H80.9709V14.5366H73.3228V12.4647L77.888 6.47904H73.3442V4.36523H80.9172V6.43718Z" fill="#585858"/>
<path d="M82.9795 1.7168H85.6112V9.64878C85.6112 11.4068 86.5887 12.3277 88.2644 12.3277C89.9616 12.3277 90.9391 11.4068 90.9391 9.64878V1.7168H93.5923V9.62786C93.5923 13.0078 91.1002 14.6612 88.2214 14.6612C85.3427 14.6612 82.958 13.0078 82.958 9.62786V1.7168H82.9795Z" fill="#F35E29"/>
<path d="M102.239 4.19727C104.914 4.19727 107.009 6.23782 107.009 9.40852C107.009 12.5792 104.914 14.693 102.239 14.693C100.596 14.693 99.4358 13.9082 98.7913 13.0815V19.3811H96.1488V4.3647H98.7913V5.82971C99.4143 4.97163 100.617 4.19727 102.239 4.19727ZM101.541 6.45757C100.123 6.45757 98.7913 7.52493 98.7913 9.45038C98.7913 11.3758 100.134 12.4432 101.541 12.4432C102.97 12.4432 104.312 11.3444 104.312 9.40852C104.312 7.47261 102.981 6.45757 101.541 6.45757Z" fill="#F35E29"/>
</g>
<defs>
<clipPath id="clip0_3735_54404">
<rect width="107.009" height="19.38" fill="white"/>
</clipPath>
</defs>
</svg>
